<svg width="96" height="96" xmlns="http://www.w3.org/2000/svg" class="bi bi-stopwatch">

 <g>
  <title>Layer 1</title>
  <path fill="#8257e5" stroke="null" id="svg_1" d="m52.00412,37.80911a2.91196,2.91196 0 1 0 -5.82393,0l0,16.88939l-17.47178,0a2.91196,2.91196 0 0 0 0,5.82393l20.38374,0a2.91196,2.91196 0 0 0 2.91196,-2.91196l0,-19.80135z"/>
  <path fill="#8257e5" stroke="null" id="svg_2" d="m38.40242,3.72408a3.04833,3.04833 0 0 1 3.04833,-3.04833l12.19332,0a3.04833,3.04833 0 0 1 0,6.09666l0,3.4751c8.29146,1.19495 15.81474,4.7554 21.85044,9.99853a4.35911,4.35911 0 0 1 0.07316,-0.07926l2.15822,-2.15822l-2.15822,-2.15212a3.04833,3.04833 0 0 1 4.31034,-4.31644l8.62068,8.62678a3.04833,3.04833 0 1 1 -4.31034,4.31034l-2.15212,-2.15822l-2.15822,2.15822a3.12149,3.12149 0 0 1 -0.07926,0.07316a42.67663,42.67663 0 1 1 -38.348,-14.29667l0,-3.48119a3.04833,3.04833 0 0 1 -3.04833,-3.04833zm9.14499,12.19332a36.57997,36.57997 0 1 0 0.0061,73.15994a36.57997,36.57997 0 0 0 -0.0061,-73.15994z"/>
 </g>
</svg>